<svg width="80" height="70" viewBox="0 0 80 70" fill="none" xmlns="http://www.w3.org/2000/svg">
<path d="M0 0H80V70H0V0Z" fill="black"/>
<path d="M13.02 25H11.88L10.44 22.48V25H9.36V20.8H10.5L11.94 23.32V20.8H13.02V25ZM16.4428 21.94C16.4428 21.7 16.3228 21.58 16.0828 21.58H15.0628C14.8228 21.58 14.7028 21.7 14.7028 21.94V23.86C14.7028 24.1 14.8228 24.22 15.0628 24.22H16.0828C16.3228 24.22 16.4428 24.1 16.4428 23.86V21.94ZM17.5228 23.86C17.5228 24.28 17.4268 24.586 17.2348 24.778C17.0468 24.966 16.7428 25.06 16.3228 25.06H14.8228C14.4028 25.06 14.0968 24.966 13.9048 24.778C13.7168 24.586 13.6228 24.28 13.6228 23.86V21.94C13.6228 21.52 13.7168 21.216 13.9048 21.028C14.0968 20.836 14.4028 20.74 14.8228 20.74H16.3228C16.7428 20.74 17.0468 20.836 17.2348 21.028C17.4268 21.216 17.5228 21.52 17.5228 21.94V23.86ZM18.1256 20.8H20.6456C21.0656 20.8 21.3696 20.896 21.5576 21.088C21.7496 21.276 21.8456 21.58 21.8456 22V22.54C21.8456 22.872 21.7896 23.13 21.6776 23.314C21.5696 23.498 21.3956 23.62 21.1556 23.68L21.9056 25H20.7356L20.0456 23.74H19.2056V25H18.1256V20.8ZM20.7656 22C20.7656 21.76 20.6456 21.64 20.4056 21.64H19.2056V22.9H20.4056C20.6456 22.9 20.7656 22.78 20.7656 22.54V22ZM24.484 25H23.404V21.64H22.144V20.8H25.744V21.64H24.484V25ZM29.4947 25H26.1647V20.8H29.4947V21.64H27.2447V22.45H29.0147V23.29H27.2447V24.16H29.4947V25Z" fill="white"/>
<line x1="9" y1="47.5" x2="38" y2="47.5" stroke="url(#paint0_linear_116_24)" stroke-width="6"/>
<line x1="9" y1="39.5" x2="38" y2="39.5" stroke="white" stroke-width="6"/>
<line x1="35" y1="42.5" x2="35" y2="20.5" stroke="white" stroke-width="6"/>
<line x1="12" y1="41.5" x2="12" y2="33.5" stroke="white" stroke-width="6"/>
<line x1="43" y1="38.5" x2="43" y2="50.5" stroke="white" stroke-width="6"/>
<line x1="69" y1="47.5" x2="46" y2="47.5" stroke="white" stroke-width="6"/>
<line x1="69" y1="23.5" x2="40" y2="23.5" stroke="white" stroke-width="6"/>
<line x1="67.1821" y1="44.2307" x2="42.4884" y2="27.762" stroke="white" stroke-width="6"/>
<line x1="66" y1="21.5" x2="66" y2="33.5" stroke="white" stroke-width="6"/>
<line x1="43" y1="20.5" x2="43" y2="32.5" stroke="white" stroke-width="6"/>
<line x1="66" y1="38" x2="66" y2="50" stroke="white" stroke-width="6"/>
<path d="M71.9959 36.496L70.4965 42.9965L51.9963 30.496L71.9959 36.496Z" fill="black"/>
<path d="M71.9959 36.496L70.4965 42.9965L51.9963 30.496L71.9959 36.496Z" fill="black"/>
<path d="M58.4992 41.9994L57.4994 43.4994L39.0003 32L39 29L40.5004 30.0004L58.4992 41.9994Z" fill="black"/>
<defs>
<linearGradient id="paint0_linear_116_24" x1="9" y1="51" x2="38" y2="51" gradientUnits="userSpaceOnUse">
<stop stop-color="#F4E60B"/>
<stop offset="0.5" stop-color="#018D5E"/>
<stop offset="1" stop-color="#3178C6"/>
</linearGradient>
</defs>
</svg>
